<?xml version="1.0" encoding="iso-8859-1"?>
<!-- Generator: Adobe Illustrator 19.0.0, SVG Export Plug-In . SVG Version: 6.00 Build 0)  -->
<svg version="1.1" id="Layer_1" xmlns="http://www.w3.org/2000/svg" xmlns:xlink="http://www.w3.org/1999/xlink" x="0px" y="0px"
	 viewBox="0 0 507.661 507.661" style="enable-background:new 0 0 507.661 507.661;" xml:space="preserve">
<g>
	<g>
		<path d="M288.323,69.175l4.146,49.983l59.526,14.445c-6.329,19.892-33.792,59.484-81.878,118.012
			c-38.324-76.212-70.068-142.806-92.479-193.964l67.785-10.5l4.172-45.123H0v50.159l72.15,15.637
			c8.217,11.13,27.682,41.875,71.814,126.623c47.297,91.287,55.565,114.503,56.983,120.026l1.125,47.28v24.207
			c0,50.377-1.964,59.719-2.191,60.676c-0.134,0.201-3.425,4.986-25.323,7.26l-41.212,2.308l-6.371,49.429h233.992l13.975-53.307
			l-76.196-1.914l-4.23-62.607l3.483-73.216c2.677-11.289,16.191-37.494,64.512-98.338c49.295-63.656,62.825-75.91,65.763-77.253
			l59.182-19.876l20.203-49.949H288.323z"/>
	</g>
</g>
<g>
</g>
<g>
</g>
<g>
</g>
<g>
</g>
<g>
</g>
<g>
</g>
<g>
</g>
<g>
</g>
<g>
</g>
<g>
</g>
<g>
</g>
<g>
</g>
<g>
</g>
<g>
</g>
<g>
</g>
</svg>
