<?xml version="1.0" standalone="no"?>
<!DOCTYPE svg PUBLIC "-//W3C//DTD SVG 20010904//EN"
 "http://www.w3.org/TR/2001/REC-SVG-20010904/DTD/svg10.dtd">
<svg version="1.0" xmlns="http://www.w3.org/2000/svg"
 width="1201.000000pt" height="1094.000000pt" viewBox="0 0 1201.000000 1094.000000"
 preserveAspectRatio="xMidYMid meet">

<g transform="translate(0.000000,1094.000000) scale(0.100000,-0.100000)"
fill="#000000" stroke="none">
<path d="M3035 10923 c-1012 -61 -1921 -586 -2493 -1440 -275 -410 -452 -892
-514 -1398 -17 -140 -17 -546 0 -685 30 -244 98 -520 187 -762 79 -215 233
-513 359 -693 31 -44 2925 -3485 4335 -5155 341 -404 657 -655 947 -752 98
-33 232 -32 329 1 149 51 320 151 485 285 203 164 320 299 2545 2940 1229
1458 2222 2645 2263 2705 260 379 449 861 516 1322 22 148 23 755 1 899 -65
434 -218 847 -453 1222 -458 731 -1198 1256 -2032 1441 -833 185 -1701 18
-2430 -468 -432 -288 -781 -668 -1042 -1134 l-30 -53 -55 98 c-445 793 -1234
1375 -2115 1563 -260 56 -556 79 -803 64z m560 -397 c324 -49 584 -130 855
-266 602 -301 1073 -821 1335 -1475 70 -174 85 -198 139 -224 88 -43 196 -15
240 62 14 23 41 87 61 142 65 175 209 446 324 610 134 190 361 434 531 569
367 291 797 484 1265 565 356 63 785 52 1140 -28 419 -94 832 -295 1157 -564
115 -94 314 -295 401 -403 103 -129 228 -327 311 -494 202 -407 296 -812 296
-1275 0 -356 -53 -651 -175 -980 -75 -203 -236 -500 -351 -648 -22 -28 -969
-1154 -2105 -2502 -1135 -1347 -2111 -2506 -2169 -2575 -263 -314 -491 -513
-710 -617 -106 -51 -142 -49 -261 10 -52 26 -137 78 -188 115 -109 77 -304
261 -424 401 -117 135 -4292 5092 -4353 5168 -67 84 -190 291 -263 444 -109
230 -187 479 -232 739 -26 155 -37 546 -20 722 38 391 157 778 338 1103 440
790 1220 1305 2138 1410 155 18 578 13 720 -9z"/>
<path d="M3950 9374 c-275 -54 -452 -190 -526 -403 -27 -78 -44 -225 -44 -390
0 -79 -2 -92 -15 -87 -119 45 -301 53 -435 17 -191 -50 -344 -166 -413 -312
-60 -126 -67 -181 -67 -502 l0 -284 -107 -6 c-192 -9 -341 -68 -462 -182 -129
-123 -187 -282 -178 -490 9 -190 71 -340 192 -461 116 -116 228 -161 433 -171
l122 -6 0 -264 c0 -201 4 -282 16 -341 42 -204 157 -368 317 -448 155 -79 407
-87 580 -19 16 7 17 -2 17 -101 0 -416 143 -666 434 -760 113 -37 293 -39 410
-6 187 54 332 164 400 305 73 148 70 112 74 915 l3 722 1309 0 1309 0 3 -707
c4 -798 0 -756 84 -930 122 -254 400 -378 707 -315 265 55 453 227 502 460 8
37 18 145 21 240 6 152 9 172 23 167 105 -41 301 -48 426 -16 234 61 387 197
456 406 22 66 23 89 27 381 l3 311 122 6 c204 10 316 55 433 171 119 119 182
272 191 466 13 270 -108 485 -331 591 -110 52 -182 70 -308 76 l-108 6 0 271
c0 237 -3 282 -20 356 -75 314 -300 493 -620 493 -96 1 -189 -16 -272 -48 -16
-7 -18 2 -18 96 -1 227 -36 389 -111 515 -129 216 -395 323 -672 270 -221 -43
-388 -161 -468 -331 -65 -139 -63 -109 -67 -902 l-3 -723 -1309 0 -1309 0 -3
708 c-4 790 -1 753 -78 917 -72 155 -179 253 -337 307 -70 24 -105 30 -197 33
-61 2 -122 1 -136 -1z m227 -400 c33 -16 63 -40 83 -67 64 -87 60 58 60 -2162
0 -2258 6 -2077 -72 -2154 -70 -71 -204 -101 -310 -69 -56 16 -121 78 -149
140 l-24 53 0 2050 c0 1980 1 2051 19 2085 42 80 104 126 196 146 71 15 132 8
197 -22z m3912 14 c49 -15 115 -80 142 -141 l24 -52 3 -2025 c3 -2290 9 -2097
-78 -2181 -63 -62 -126 -83 -229 -77 -42 3 -90 12 -107 21 -47 24 -94 76 -118
127 l-21 45 -3 2035 c-2 1537 0 2046 9 2078 39 144 211 221 378 170z m-4856
-853 c48 -23 91 -65 120 -119 l22 -41 3 -1203 c2 -855 -1 -1216 -9 -1245 -17
-64 -98 -138 -175 -160 -155 -44 -273 2 -336 131 l-33 67 0 1195 0 1195 26 56
c47 99 147 153 274 146 40 -2 87 -12 108 -22z m5822 -5 c30 -16 62 -43 82 -71
66 -92 64 -41 61 -1335 l-3 -1169 -28 -57 c-49 -100 -157 -156 -282 -146 -106
9 -190 70 -225 165 -20 53 -20 80 -20 1249 0 1283 -2 1225 49 1290 79 100 248
134 366 74z m-6607 -1372 l-3 -283 -73 1 c-141 3 -217 45 -269 151 -22 46 -27
71 -27 127 -1 87 16 137 62 188 58 64 140 95 255 97 l57 1 -2 -282z m4872 -3
l0 -285 -1310 0 -1310 0 0 285 0 285 1310 0 1310 0 0 -285z m2402 274 c68 -15
115 -39 155 -81 130 -136 67 -401 -109 -457 -21 -7 -72 -13 -115 -14 l-78 -2
-3 283 -2 282 49 0 c28 0 74 -5 103 -11z"/>
</g>
</svg>
